ffmpeg started on 2025-06-07 at 17:58:56
Report written to "D:\Convert\FFMetrics\reports\ssim_report-6.txt"
Log level: 32
Command line:
ffmpeg -hide_banner -nostdin -i "G:\\\xc0\xed\xe8\xec\xe5\\\xce\xed\xe3\xee\xe8\xed\xe3\xe8\\!_36_\xce\xf1\xe5\xed\xfc_2024\\DreamCast\\\xdd\xe9, \xd2\xee\xec\xe1\xee!\\\xd2\xc2-2\\[DC] Tonbo 2 - 11_Telegram_HEVC.mkv" -i "G:\\\xc0\xed\xe8\xec\xe5\\\xce\xed\xe3\xee\xe8\xed\xe3\xe8\\!_36_\xce\xf1\xe5\xed\xfc_2024\\DreamCast\\\xdd\xe9, \xd2\xee\xec\xe1\xee!\\\xd2\xc2-2\\[DC] Tonbo 2 - 11_Telegram.mp4" -lavfi "[0:v]settb=AVTB,setpts=PTS-STARTPTS,format=pix_fmts=yuv420p10,fps=24000/1001,scale=1920:1080:flags=bicubic[main];[1:v]settb=AVTB,setpts=PTS-STARTPTS,format=pix_fmts=yuv420p,fps=24000/1001,scale=1920:1080:flags=bicubic[ref];[main][ref]ssim=eof_action=endall:stats_file='D\\:/Convert/FFMetrics/logs/ssim_logfile-6.txt'" -f null -
Input #0, matroska,webm, from 'G:\Аниме\Онгоинги\!_36_Осень_2024\DreamCast\Эй, Томбо!\ТВ-2\[DC] Tonbo 2 - 11_Telegram_HEVC.mkv':
  Metadata:
    COMPATIBLE_BRANDS: isomiso2avc1mp41
    MAJOR_BRAND     : isom
    MINOR_VERSION   : 512
    ENCODER         : Lavf61.7.100
  Duration: 00:24:20.78, start: -0.021000, bitrate: 1641 kb/s
  Stream #0:0: Video: hevc (Main 10), yuv420p10le(tv, bt709, progressive), 1920x1080 [SAR 1:1 DAR 16:9], 23.98 fps, 23.98 tbr, 1k tbn (default)
      Metadata:
        HANDLER_NAME    : VideoHandler
        VENDOR_ID       : [0][0][0][0]
        ENCODER         : Lavc61.19.100 libx265
        BPS             : 1444436
        DURATION        : 00:24:19.666708333
        NUMBER_OF_FRAMES: 34997
        NUMBER_OF_BYTES : 263549307
        _STATISTICS_WRITING_APP: mkvpropedit v66.0.0 ('Josie') 64-bit
        _STATISTICS_WRITING_DATE_UTC: 2025-06-06 08:55:58
        _STATISTICS_TAGS: BPS DURATION NUMBER_OF_FRAMES NUMBER_OF_BYTES
  Stream #0:1: Audio: aac (LC), 48000 Hz, stereo, fltp (default)
      Metadata:
        HANDLER_NAME    : SoundHandler
        VENDOR_ID       : [0][0][0][0]
        ENCODER         : Lavc61.19.100 aac
        BPS             : 193805
        DURATION        : 00:24:20.778000000
        NUMBER_OF_FRAMES: 68475
        NUMBER_OF_BYTES : 35388305
        _STATISTICS_WRITING_APP: mkvpropedit v66.0.0 ('Josie') 64-bit
        _STATISTICS_WRITING_DATE_UTC: 2025-06-06 08:55:58
        _STATISTICS_TAGS: BPS DURATION NUMBER_OF_FRAMES NUMBER_OF_BYTES
Input #1, mov,mp4,m4a,3gp,3g2,mj2, from 'G:\Аниме\Онгоинги\!_36_Осень_2024\DreamCast\Эй, Томбо!\ТВ-2\[DC] Tonbo 2 - 11_Telegram.mp4':
  Metadata:
    major_brand     : isom
    minor_version   : 512
    compatible_brands: isomiso2avc1mp41
    encoder         : Lavf61.1.100
  Duration: 00:24:20.73, start: 0.000000, bitrate: 3875 kb/s
  Stream #1:0[0x1](und): Video: h264 (High) (avc1 / 0x31637661), yuv420p(tv, bt709, progressive), 1920x1080 [SAR 1:1 DAR 16:9], 3730 kb/s, 23.98 fps, 23.98 tbr, 24k tbn (default)
      Metadata:
        handler_name    : VideoHandler
        vendor_id       : [0][0][0][0]
        encoder         : Lavc61.3.100 h264_qsv
  Stream #1:1[0x2](und): Audio: aac (HE-AACv2) (mp4a / 0x6134706D), 48000 Hz, stereo, fltp, 144 kb/s (default)
      Metadata:
        handler_name    : SoundHandler
        vendor_id       : [0][0][0][0]
Stream mapping:
  Stream #0:0 (hevc) -> settb:default
  Stream #1:0 (h264) -> settb:default
  ssim:default -> Stream #0:0 (wrapped_avframe)
  Stream #0:1 -> #0:1 (aac (native) -> pcm_s16le (native))
Output #0, null, to 'pipe:':
  Metadata:
    COMPATIBLE_BRANDS: isomiso2avc1mp41
    MAJOR_BRAND     : isom
    MINOR_VERSION   : 512
    encoder         : Lavf61.7.100
  Stream #0:0: Video: wrapped_avframe, yuv420p10le(tv, bt709, progressive), 1920x1080 [SAR 1:1 DAR 16:9], q=2-31, 200 kb/s, 23.98 fps, 23.98 tbn
      Metadata:
        encoder         : Lavc61.19.100 wrapped_avframe
  Stream #0:1: Audio: pcm_s16le, 48000 Hz, stereo, s16, 1536 kb/s (default)
      Metadata:
        HANDLER_NAME    : SoundHandler
        VENDOR_ID       : [0][0][0][0]
        _STATISTICS_TAGS: BPS DURATION NUMBER_OF_FRAMES NUMBER_OF_BYTES
        BPS             : 193805
        DURATION        : 00:24:20.778000000
        NUMBER_OF_FRAMES: 68475
        NUMBER_OF_BYTES : 35388305
        _STATISTICS_WRITING_APP: mkvpropedit v66.0.0 ('Josie') 64-bit
        _STATISTICS_WRITING_DATE_UTC: 2025-06-06 08:55:58
        encoder         : Lavc61.19.100 pcm_s16le
frame=  170 fps=0.0 q=-0.0 size=N/A time=00:00:07.09 bitrate=N/A speed=13.9x    frame=  366 fps=357 q=-0.0 size=N/A time=00:00:15.26 bitrate=N/A speed=14.9x    frame=  589 fps=380 q=-0.0 size=N/A time=00:00:24.56 bitrate=N/A speed=15.9x    frame=  811 fps=394 q=-0.0 size=N/A time=00:00:33.82 bitrate=N/A speed=16.4x    frame= 1060 fps=411 q=-0.0 size=N/A time=00:00:44.21 bitrate=N/A speed=17.1x    frame= 1278 fps=414 q=-0.0 size=N/A time=00:00:53.30 bitrate=N/A speed=17.3x    frame= 1500 fps=416 q=-0.0 size=N/A time=00:01:02.56 bitrate=N/A speed=17.3x    frame= 1732 fps=420 q=-0.0 size=N/A time=00:01:12.23 bitrate=N/A speed=17.5x    frame= 1898 fps=410 q=-0.0 size=N/A time=00:01:19.16 bitrate=N/A speed=17.1x    frame= 2098 fps=407 q=-0.0 size=N/A time=00:01:27.50 bitrate=N/A speed=  17x    frame= 2308 fps=407 q=-0.0 size=N/A time=00:01:36.26 bitrate=N/A speed=  17x    frame= 2523 fps=408 q=-0.0 size=N/A time=00:01:45.23 bitrate=N/A speed=  17x    frame= 2759 fps=412 q=-0.0 size=N/A time=00:01:55.07 bitrate=N/A speed=17.2x    frame= 2996 fps=415 q=-0.0 size=N/A time=00:02:04.95 bitrate=N/A speed=17.3x    frame= 3169 fps=410 q=-0.0 size=N/A time=00:02:12.17 bitrate=N/A speed=17.1x    frame= 3304 fps=401 q=-0.0 size=N/A time=00:02:17.80 bitrate=N/A speed=16.7x    frame= 3475 fps=397 q=-0.0 size=N/A time=00:02:24.93 bitrate=N/A speed=16.5x    frame= 3685 fps=397 q=-0.0 size=N/A time=00:02:33.69 bitrate=N/A speed=16.6x    frame= 3834 fps=391 q=-0.0 size=N/A time=00:02:39.90 bitrate=N/A speed=16.3x    frame= 4083 fps=396 q=-0.0 size=N/A time=00:02:50.29 bitrate=N/A speed=16.5x    frame= 4323 fps=399 q=-0.0 size=N/A time=00:03:00.30 bitrate=N/A speed=16.7x    frame= 4518 fps=398 q=-0.0 size=N/A time=00:03:08.43 bitrate=N/A speed=16.6x    frame= 4688 fps=396 q=-0.0 size=N/A time=00:03:15.52 bitrate=N/A speed=16.5x    frame= 4920 fps=398 q=-0.0 size=N/A time=00:03:25.20 bitrate=N/A speed=16.6x    frame= 5095 fps=396 q=-0.0 size=N/A time=00:03:32.50 bitrate=N/A speed=16.5x    frame= 5350 fps=399 q=-0.0 size=N/A time=00:03:43.13 bitrate=N/A speed=16.6x    frame= 5589 fps=402 q=-0.0 size=N/A time=00:03:53.10 bitrate=N/A speed=16.8x    frame= 5842 fps=405 q=-0.0 size=N/A time=00:04:03.66 bitrate=N/A speed=16.9x    frame= 6030 fps=404 q=-0.0 size=N/A time=00:04:11.50 bitrate=N/A speed=16.8x    frame= 6231 fps=403 q=-0.0 size=N/A time=00:04:19.88 bitrate=N/A speed=16.8x    frame= 6419 fps=402 q=-0.0 size=N/A time=00:04:27.72 bitrate=N/A speed=16.8x    frame= 6602 fps=400 q=-0.0 size=N/A time=00:04:35.35 bitrate=N/A speed=16.7x    frame= 6868 fps=404 q=-0.0 size=N/A time=00:04:46.45 bitrate=N/A speed=16.8x    frame= 7108 fps=406 q=-0.0 size=N/A time=00:04:56.46 bitrate=N/A speed=16.9x    frame= 7335 fps=406 q=-0.0 size=N/A time=00:05:05.93 bitrate=N/A speed=  17x    frame= 7517 fps=405 q=-0.0 size=N/A time=00:05:13.52 bitrate=N/A speed=16.9x    frame= 7671 fps=402 q=-0.0 size=N/A time=00:05:19.94 bitrate=N/A speed=16.8x    frame= 7884 fps=402 q=-0.0 size=N/A time=00:05:28.82 bitrate=N/A speed=16.8x    frame= 8121 fps=404 q=-0.0 size=N/A time=00:05:38.71 bitrate=N/A speed=16.9x    frame= 8356 fps=405 q=-0.0 size=N/A time=00:05:48.51 bitrate=N/A speed=16.9x    frame= 8630 fps=408 q=-0.0 size=N/A time=00:05:59.94 bitrate=N/A speed=  17x    frame= 8886 fps=410 q=-0.0 size=N/A time=00:06:10.62 bitrate=N/A speed=17.1x    frame= 9108 fps=411 q=-0.0 size=N/A time=00:06:19.87 bitrate=N/A speed=17.1x    frame= 9334 fps=412 q=-0.0 size=N/A time=00:06:29.30 bitrate=N/A speed=17.2x    frame= 9535 fps=411 q=-0.0 size=N/A time=00:06:37.68 bitrate=N/A speed=17.1x    frame= 9729 fps=410 q=-0.0 size=N/A time=00:06:45.78 bitrate=N/A speed=17.1x    frame= 9937 fps=410 q=-0.0 size=N/A time=00:06:54.45 bitrate=N/A speed=17.1x    frame=10172 fps=411 q=-0.0 size=N/A time=00:07:04.25 bitrate=N/A speed=17.1x    frame=10414 fps=412 q=-0.0 size=N/A time=00:07:14.35 bitrate=N/A speed=17.2x    frame=10611 fps=412 q=-0.0 size=N/A time=00:07:22.56 bitrate=N/A speed=17.2x    frame=10877 fps=414 q=-0.0 size=N/A time=00:07:33.66 bitrate=N/A speed=17.3x    frame=11129 fps=415 q=-0.0 size=N/A time=00:07:44.17 bitrate=N/A speed=17.3x    frame=11404 fps=417 q=-0.0 size=N/A time=00:07:55.64 bitrate=N/A speed=17.4x    frame=11679 fps=419 q=-0.0 size=N/A time=00:08:07.11 bitrate=N/A speed=17.5x    frame=11943 fps=421 q=-0.0 size=N/A time=00:08:18.12 bitrate=N/A speed=17.6x    frame=12225 fps=424 q=-0.0 size=N/A time=00:08:29.88 bitrate=N/A speed=17.7x    frame=12466 fps=424 q=-0.0 size=N/A time=00:08:39.93 bitrate=N/A speed=17.7x    frame=12679 fps=424 q=-0.0 size=N/A time=00:08:48.81 bitrate=N/A speed=17.7x    frame=12903 fps=424 q=-0.0 size=N/A time=00:08:58.16 bitrate=N/A speed=17.7x    frame=13119 fps=424 q=-0.0 size=N/A time=00:09:07.17 bitrate=N/A speed=17.7x    frame=13316 fps=424 q=-0.0 size=N/A time=00:09:15.38 bitrate=N/A speed=17.7x    frame=13545 fps=424 q=-0.0 size=N/A time=00:09:24.93 bitrate=N/A speed=17.7x    frame=13767 fps=424 q=-0.0 size=N/A time=00:09:34.19 bitrate=N/A speed=17.7x    frame=14014 fps=425 q=-0.0 size=N/A time=00:09:44.50 bitrate=N/A speed=17.7x    frame=14194 fps=423 q=-0.0 size=N/A time=00:09:52.00 bitrate=N/A speed=17.7x    frame=14441 fps=424 q=-0.0 size=N/A time=00:10:02.31 bitrate=N/A speed=17.7x    frame=14701 fps=425 q=-0.0 size=N/A time=00:10:13.15 bitrate=N/A speed=17.7x    frame=14938 fps=426 q=-0.0 size=N/A time=00:10:23.03 bitrate=N/A speed=17.8x    frame=15170 fps=426 q=-0.0 size=N/A time=00:10:32.71 bitrate=N/A speed=17.8x    frame=15441 fps=428 q=-0.0 size=N/A time=00:10:44.06 bitrate=N/A speed=17.8x    frame=15673 fps=428 q=-0.0 size=N/A time=00:10:53.69 bitrate=N/A speed=17.9x    frame=15883 fps=428 q=-0.0 size=N/A time=00:11:02.45 bitrate=N/A speed=17.8x    frame=16080 fps=427 q=-0.0 size=N/A time=00:11:10.67 bitrate=N/A speed=17.8x    frame=16278 fps=427 q=-0.0 size=N/A time=00:11:18.92 bitrate=N/A speed=17.8x    frame=16518 fps=427 q=-0.0 size=N/A time=00:11:28.93 bitrate=N/A speed=17.8x    frame=16685 fps=426 q=-0.0 size=N/A time=00:11:35.90 bitrate=N/A speed=17.8x    frame=16883 fps=425 q=-0.0 size=N/A time=00:11:44.16 bitrate=N/A speed=17.7x    frame=17160 fps=426 q=-0.0 size=N/A time=00:11:55.71 bitrate=N/A speed=17.8x    frame=17384 fps=427 q=-0.0 size=N/A time=00:12:05.05 bitrate=N/A speed=17.8x    frame=17630 fps=427 q=-0.0 size=N/A time=00:12:15.31 bitrate=N/A speed=17.8x    frame=17899 fps=428 q=-0.0 size=N/A time=00:12:26.53 bitrate=N/A speed=17.9x    frame=18127 fps=429 q=-0.0 size=N/A time=00:12:36.04 bitrate=N/A speed=17.9x    frame=18324 fps=428 q=-0.0 size=N/A time=00:12:44.26 bitrate=N/A speed=17.9x    frame=18585 fps=429 q=-0.0 size=N/A time=00:12:55.14 bitrate=N/A speed=17.9x    frame=18815 fps=429 q=-0.0 size=N/A time=00:13:04.74 bitrate=N/A speed=17.9x    frame=19062 fps=430 q=-0.0 size=N/A time=00:13:15.04 bitrate=N/A speed=17.9x    frame=19254 fps=429 q=-0.0 size=N/A time=00:13:23.05 bitrate=N/A speed=17.9x    frame=19447 fps=428 q=-0.0 size=N/A time=00:13:31.10 bitrate=N/A speed=17.9x    frame=19699 fps=429 q=-0.0 size=N/A time=00:13:41.61 bitrate=N/A speed=17.9x    frame=19966 fps=430 q=-0.0 size=N/A time=00:13:52.74 bitrate=N/A speed=17.9x    frame=20196 fps=430 q=-0.0 size=N/A time=00:14:02.34 bitrate=N/A speed=17.9x    frame=20413 fps=430 q=-0.0 size=N/A time=00:14:11.39 bitrate=N/A speed=17.9x    frame=20603 fps=430 q=-0.0 size=N/A time=00:14:19.31 bitrate=N/A speed=17.9x    frame=20832 fps=430 q=-0.0 size=N/A time=00:14:28.86 bitrate=N/A speed=17.9x    frame=21084 fps=430 q=-0.0 size=N/A time=00:14:39.37 bitrate=N/A speed=17.9x    frame=21328 fps=431 q=-0.0 size=N/A time=00:14:49.55 bitrate=N/A speed=  18x    frame=21495 fps=430 q=-0.0 size=N/A time=00:14:56.52 bitrate=N/A speed=17.9x    frame=21686 fps=429 q=-0.0 size=N/A time=00:15:04.48 bitrate=N/A speed=17.9x    frame=21897 fps=429 q=-0.0 size=N/A time=00:15:13.28 bitrate=N/A speed=17.9x    frame=22067 fps=428 q=-0.0 size=N/A time=00:15:20.37 bitrate=N/A speed=17.8x    frame=22330 fps=429 q=-0.0 size=N/A time=00:15:31.34 bitrate=N/A speed=17.9x    frame=22565 fps=429 q=-0.0 size=N/A time=00:15:41.14 bitrate=N/A speed=17.9x    frame=22856 fps=430 q=-0.0 size=N/A time=00:15:53.28 bitrate=N/A speed=17.9x    frame=23112 fps=431 q=-0.0 size=N/A time=00:16:03.96 bitrate=N/A speed=  18x    frame=23379 fps=432 q=-0.0 size=N/A time=00:16:15.09 bitrate=N/A speed=  18x    frame=23627 fps=432 q=-0.0 size=N/A time=00:16:25.44 bitrate=N/A speed=  18x    frame=23876 fps=433 q=-0.0 size=N/A time=00:16:35.82 bitrate=N/A speed=  18x    frame=24088 fps=432 q=-0.0 size=N/A time=00:16:44.67 bitrate=N/A speed=  18x    frame=24309 fps=432 q=-0.0 size=N/A time=00:16:53.88 bitrate=N/A speed=  18x    frame=24529 fps=432 q=-0.0 size=N/A time=00:17:03.06 bitrate=N/A speed=  18x    frame=24727 fps=432 q=-0.0 size=N/A time=00:17:11.32 bitrate=N/A speed=  18x    frame=24982 fps=432 q=-0.0 size=N/A time=00:17:21.95 bitrate=N/A speed=  18x    frame=25210 fps=433 q=-0.0 size=N/A time=00:17:31.46 bitrate=N/A speed=  18x    frame=25422 fps=432 q=-0.0 size=N/A time=00:17:40.30 bitrate=N/A speed=  18x    frame=25689 fps=433 q=-0.0 size=N/A time=00:17:51.44 bitrate=N/A speed=18.1x    frame=25929 fps=433 q=-0.0 size=N/A time=00:18:01.45 bitrate=N/A speed=18.1x    frame=26190 fps=434 q=-0.0 size=N/A time=00:18:12.34 bitrate=N/A speed=18.1x    frame=26436 fps=434 q=-0.0 size=N/A time=00:18:22.60 bitrate=N/A speed=18.1x    frame=26658 fps=434 q=-0.0 size=N/A time=00:18:31.86 bitrate=N/A speed=18.1x    frame=26940 fps=435 q=-0.0 size=N/A time=00:18:43.62 bitrate=N/A speed=18.2x    frame=27135 fps=435 q=-0.0 size=N/A time=00:18:51.75 bitrate=N/A speed=18.1x    frame=27320 fps=434 q=-0.0 size=N/A time=00:18:59.47 bitrate=N/A speed=18.1x    frame=27506 fps=434 q=-0.0 size=N/A time=00:19:07.22 bitrate=N/A speed=18.1x    frame=27706 fps=433 q=-0.0 size=N/A time=00:19:15.57 bitrate=N/A speed=18.1x    frame=27948 fps=433 q=-0.0 size=N/A time=00:19:25.66 bitrate=N/A speed=18.1x    frame=28176 fps=433 q=-0.0 size=N/A time=00:19:35.17 bitrate=N/A speed=18.1x    frame=28349 fps=433 q=-0.0 size=N/A time=00:19:42.38 bitrate=N/A speed=  18x    frame=28504 fps=432 q=-0.0 size=N/A time=00:19:48.85 bitrate=N/A speed=  18x    frame=28731 fps=432 q=-0.0 size=N/A time=00:19:58.32 bitrate=N/A speed=  18x    frame=28906 fps=431 q=-0.0 size=N/A time=00:20:05.62 bitrate=N/A speed=  18x    frame=29127 fps=431 q=-0.0 size=N/A time=00:20:14.83 bitrate=N/A speed=  18x    frame=29359 fps=431 q=-0.0 size=N/A time=00:20:24.51 bitrate=N/A speed=  18x    frame=29619 fps=432 q=-0.0 size=N/A time=00:20:35.35 bitrate=N/A speed=  18x    frame=29876 fps=432 q=-0.0 size=N/A time=00:20:46.07 bitrate=N/A speed=  18x    frame=30105 fps=432 q=-0.0 size=N/A time=00:20:55.62 bitrate=N/A speed=  18x    frame=30390 fps=433 q=-0.0 size=N/A time=00:21:07.51 bitrate=N/A speed=18.1x    frame=30629 fps=433 q=-0.0 size=N/A time=00:21:17.48 bitrate=N/A speed=18.1x    frame=30845 fps=433 q=-0.0 size=N/A time=00:21:26.49 bitrate=N/A speed=18.1x    frame=31085 fps=433 q=-0.0 size=N/A time=00:21:36.50 bitrate=N/A speed=18.1x    frame=31293 fps=433 q=-0.0 size=N/A time=00:21:45.17 bitrate=N/A speed=18.1x    frame=31547 fps=434 q=-0.0 size=N/A time=00:21:55.77 bitrate=N/A speed=18.1x    frame=31782 fps=434 q=-0.0 size=N/A time=00:22:05.57 bitrate=N/A speed=18.1x    frame=31970 fps=433 q=-0.0 size=N/A time=00:22:13.41 bitrate=N/A speed=18.1x    frame=32195 fps=433 q=-0.0 size=N/A time=00:22:22.79 bitrate=N/A speed=18.1x    frame=32427 fps=433 q=-0.0 size=N/A time=00:22:32.47 bitrate=N/A speed=18.1x    frame=32658 fps=434 q=-0.0 size=N/A time=00:22:42.11 bitrate=N/A speed=18.1x    frame=32900 fps=434 q=-0.0 size=N/A time=00:22:52.20 bitrate=N/A speed=18.1x    frame=33116 fps=434 q=-0.0 size=N/A time=00:23:01.21 bitrate=N/A speed=18.1x    frame=33343 fps=434 q=-0.0 size=N/A time=00:23:10.68 bitrate=N/A speed=18.1x    frame=33558 fps=434 q=-0.0 size=N/A time=00:23:19.64 bitrate=N/A speed=18.1x    frame=33745 fps=433 q=-0.0 size=N/A time=00:23:27.44 bitrate=N/A speed=18.1x    frame=33994 fps=433 q=-0.0 size=N/A time=00:23:37.83 bitrate=N/A speed=18.1x    frame=34235 fps=434 q=-0.0 size=N/A time=00:23:47.88 bitrate=N/A speed=18.1x    frame=34436 fps=433 q=-0.0 size=N/A time=00:23:56.26 bitrate=N/A speed=18.1x    frame=34645 fps=433 q=-0.0 size=N/A time=00:24:04.98 bitrate=N/A speed=18.1x    frame=34889 fps=434 q=-0.0 size=N/A time=00:24:15.16 bitrate=N/A speed=18.1x    [Parsed_ssim_10 @ 000001ee839b6540] SSIM Y:0.992631 (21.326020) U:0.991737 (20.828875) V:0.992945 (21.515000) All:0.992535 (21.269425)
[out#0/null @ 000001ee81764200] video:15038KiB audio:273900KiB subtitle:0KiB other streams:0KiB global headers:0KiB muxing overhead: unknown
frame=34997 fps=434 q=-0.0 Lsize=N/A time=00:24:19.66 bitrate=N/A speed=18.1x    
